<?xml version="1.0" encoding="UTF-8"?>
<svg width="2638" height="2678.3" version="1.1" viewBox="0 0 2637.996 2678.2993" xmlns="http://www.w3.org/2000/svg">
 <defs>
  <filter id="a" x="-.14542" y="-.14261" width="1.2908" height="1.2852" color-interpolation-filters="sRGB">
   <feGaussianBlur stdDeviation="10.890217"/>
  </filter>
 </defs>
 <g transform="translate(886.67 691.95)">
  <g transform="matrix(11.37 0 0 11.37 -5724 -11099)">
   <path d="m544.76 941.44c-0.96498-7e-3 -1.9298 2e-3 -2.8945 0.0234-0.39678 9e-3 -0.79288 0.0276-1.1894 0.041-0.0476 2e-3 -0.095 4e-3 -0.14258 6e-3 -0.0801 3e-3 -0.16018 5e-3 -0.24024 8e-3 -0.3632 0.0137-0.72691 0.0195-1.0898 0.0371-0.10883 5e-3 -0.21737 0.0139-0.32617 0.0195-0.12232 6e-3 -0.24491 9e-3 -0.36719 0.0156-0.30386 0.0169-0.60656 0.0467-0.91016 0.0664-0.0188 1e-3 -0.0378 7.2e-4 -0.0566 2e-3 -8e-3 5.6e-4 -0.0169 1e-3 -0.0254 2e-3 -0.52839 0.0348-1.0566 0.07-1.584 0.11328-0.17946 0.0147-0.35973 0.0234-0.53907 0.0391-0.26492 0.0232-0.52834 0.0567-0.79296 0.082-0.0208 2e-3 -0.0417 4e-3 -0.0625 6e-3 -5e-3 5e-4 -0.0104 1e-3 -0.0156 2e-3 -3e-3 2.5e-4 -5e-3 -2.5e-4 -8e-3 0-0.52544 0.0507-1.0502 0.1049-1.5742 0.16407-0.40561 0.0458-0.81016 0.0956-1.2148 0.14648-0.0157 2e-3 -0.0312 4e-3 -0.0469 6e-3 -0.0156 2e-3 -0.0312 4e-3 -0.0469 6e-3 -6e-3 7.4e-4 -0.0117 1e-3 -0.0176 2e-3 -0.54869 0.0696-1.0958 0.14384-1.6426 0.22266-0.41661 0.0601-0.83268 0.12011-1.248 0.18555-0.56824 0.0895-1.1336 0.18756-1.6992 0.28711-0.40849 0.0719-0.81758 0.14162-1.2246 0.21874-0.53448 0.10127-1.0659 0.21201-1.5977 0.32227-0.43699 0.0906-0.87555 0.17673-1.3106 0.27344-1.8964 0.42155-3.7732 0.90081-5.625 1.4375-0.24359 0.0706-0.48384 0.14811-0.72656 0.2207-0.64997 0.19437-1.298 0.39296-1.9414 0.60156-1e-3 4.5e-4 -3e-3 2e-3 -4e-3 2e-3 -4e-3 1e-3 -8e-3 3e-3 -0.0117 4e-3 -0.0118 4e-3 -0.0234 8e-3 -0.0352 0.0117-0.0116 4e-3 -0.0236 6e-3 -0.0352 0.01-0.36539 0.11891-0.72672 0.24564-1.0898 0.36914-0.52476 0.17844-1.0486 0.35886-1.5684 0.54687-3e-3 9.1e-4 -5e-3 1e-3 -8e-3 2e-3 -0.0113 4e-3 -0.0219 0.01-0.0332 0.0137-0.0141 5e-3 -0.0288 9e-3 -0.043 0.0137-0.36104 0.13103-0.71959 0.26669-1.0781 0.40234-0.53135 0.20102-1.0603 0.40605-1.5859 0.61719-0.36997 0.14863-0.73847 0.29948-1.1055 0.45313-0.01 4e-3 -0.0193 0.01-0.0293 0.0137-3e-3 1e-3 -7e-3 3e-3 -0.01 4e-3 -2e-3 1e-3 -5e-3 9.3e-4 -8e-3 2e-3 -1e-3 5.5e-4 -3e-3 1e-3 -4e-3 2e-3 -3e-3 1e-3 -5e-3 3e-3 -8e-3 4e-3 -0.4716 0.19784-0.93975 0.4013-1.4062 0.60742-0.0203 9e-3 -0.0403 0.0184-0.0605 0.0273-0.02 9e-3 -0.0405 0.0165-0.0606 0.0254-0.35332 0.15683-0.70637 0.31304-1.0566 0.47461-0.5536 0.25534-1.1008 0.51992-1.6465 0.78711-0.28406 0.1391-0.56971 0.27566-0.85156 0.41797-3e-3 1e-3 -5e-3 3e-3 -8e-3 4e-3 -3e-3 2e-3 -7e-3 2e-3 -0.01 4e-3 -0.11958 0.0604-0.24214 0.11675-0.36132 0.17774-0.44406 0.22724-0.87813 0.46787-1.3164 0.70312l-2e-3 2e-3c-5e-3 2e-3 -9e-3 5e-3 -0.0137 8e-3 -0.0292 0.0157-0.0587 0.0311-0.0879 0.0469-0.0323 0.0174-0.0654 0.0333-0.0976 0.0508-0.21871 0.11826-0.44099 0.23131-0.65821 0.35157-0.0516 0.0286-0.1047 0.0553-0.15625 0.084-0.76835 0.42774-1.5285 0.8675-2.2773 1.3203-0.5426 0.32809-1.0708 0.67234-1.6055 1.0098-0.099 0.0625-0.19817 0.12471-0.29687 0.1875-0.3122 0.19859-0.63198 0.3881-0.94141 0.58984-3e-3 2e-3 -5e-3 4e-3 -8e-3 6e-3 -0.39213 0.25572-0.7725 0.52445-1.1602 0.78516-0.53492 0.35973-1.0752 0.71295-1.6016 1.082-0.90982 0.63799-1.8077 1.2899-2.6914 1.9551l-2e-3 2e-3c-7e-3 5e-3 -0.0144 0.0103-0.0215 0.0156-0.87695 0.66052-1.7391 1.335-2.5898 2.0215-9e-3 8e-3 -0.0199 0.0139-0.0293 0.0215-0.55799 0.4505-1.0999 0.91562-1.6465 1.377-0.0138 0.0117-0.0292 0.0215-0.043 0.0332-5e-3 4e-3 -0.0104 9e-3 -0.0156 0.0137-0.0448 0.0379-0.09 0.0753-0.13477 0.11328-0.22889 0.19422-0.46455 0.38204-0.69141 0.57813-2e-3 2e-3 -5e-3 4e-3 -8e-3 6e-3 -0.73981 0.63954-1.4637 1.2922-2.1816 1.9512-0.0309 0.0283-0.0629 0.0556-0.0937 0.084-0.0217 0.02-0.0447 0.0386-0.0664 0.0586-6e-3 6e-3 -0.0131 0.0117-0.0195 0.0176-0.0186 0.0172-0.04 0.0356-0.0586 0.0527l-2e-3 2e-3c-0.0108 0.01-0.0224 0.0193-0.0332 0.0293-0.7895 0.73015-1.5638 1.4736-2.3262 2.2266-0.015 0.0149-0.0318 0.0281-0.0469 0.043-0.64957 0.64237-1.2826 1.2967-1.9121 1.9551-0.11092 0.11601-0.22565 0.22921-0.33594 0.3457-3e-3 3e-3 -7e-3 6e-3 -0.01 0.01-5.9941 6.3326-11.06 13.379-15.068 20.904v2e-3c-5.003 9.3924-8.3629 19.528-9.8281 29.943-0.58595 4.1657-0.86928 8.3761-0.83398 12.602 9e-3 1.0559 0.039 2.1127 0.0879 3.17s0.11761 2.1161 0.20703 3.1738c0.0965 1.1418 0.21961 2.2776 0.35742 3.4082 5.6e-4 0 1e-3 0.01 2e-3 0.014 4.8e-4 0 1e-3 0.01 2e-3 0.012 0.0225 0.1842 0.0429 0.3689 0.0664 0.5528 4.1e-4 0-4.1e-4 0.01 0 0.01 5.9e-4 0 1e-3 0.01 2e-3 0.014 0.13432 1.0451 0.28804 2.0843 0.45703 3.1191 1e-3 0.01 3e-3 0.013 4e-3 0.02 5.4e-4 0 1e-3 0.01 2e-3 0.01 3.1e-4 0-3.1e-4 0 0 0.01 2.1e-4 0-2.1e-4 0 0 0 0.0436 0.2669 0.0908 0.5326 0.13671 0.7988 1e-3 0.01 3e-3 0.014 4e-3 0.022 8.9e-4 0.01 1e-3 0.01 2e-3 0.016 0.1734 1.0014 0.35717 1.9993 0.5625 2.9903 5.5e-4 0 1e-3 0.01 2e-3 0.01 6.7e-4 0 1e-3 0.01 2e-3 0.01 0.055 0.266 0.11654 0.5296 0.17383 0.7949 0.16846 0.7777 0.34731 1.5514 0.53516 2.3222 0.0575 0.2367 0.10476 0.477 0.16406 0.7129 0.0282 0.1123 0.0632 0.222 0.0918 0.334 1e-3 0 3e-3 0.01 4e-3 0.014 0.21743 0.8487 0.44882 1.6915 0.68945 2.5312 0.13461 0.471 0.27225 0.9402 0.41407 1.4082 0.22366 0.7364 0.454 1.4702 0.69531 2.1993 0.0185 0.056 0.0361 0.1121 0.0547 0.1679 0.0512 0.1541 0.0945 0.3112 0.14648 0.4649 0.13038 0.3855 0.27879 0.7632 0.41406 1.1465 6e-3 0.016 0.0118 0.033 0.0176 0.049 2e-3 0.01 4e-3 0.01 6e-3 0.016 0.10754 0.3034 0.21559 0.6061 0.32617 0.9082 1.1709 3.204 2.5128 6.329 4.0156 9.3652 2e-3 0 4e-3 0.01 6e-3 0.014 2.6e-4 5e-4 -2.6e-4 0 0 0 3.0437 6.1464 6.7327 11.932 11.01 17.244 9.1442 11.358 20.912 20.586 34.473 26.73h2e-3c2.2596 1.0238 4.5685 1.9643 6.9238 2.8125h2e-3c3.5333 1.2723 7.1715 2.3413 10.898 3.1934 4.3834 1.002 11.873 1.4165 19.697 1.3261 1.1184-0.013 2.2434-0.035 3.3672-0.068 2.2464-0.067 4.4871-0.1732 6.6582-0.3184s4.2719-0.3289 6.2383-0.5488c1.9664-0.22 3.7975-0.4766 5.4297-0.7676 1.6322-0.2909 3.0659-0.6165 4.2344-0.9746 2.1573-0.6611 4.5694-1.5047 7.0098-2.4297 1.2202-0.4625 2.4476-0.9447 3.6523-1.4355 6.0236-2.4541 11.495-5.1066 12.82-6.3868 0.88437-0.8543 3.1344-2.4883 5-3.6308 0.30673-0.1879 0.64285-0.4225 0.99024-0.6797 0.0777-0.057 0.15484-0.1151 0.23437-0.1758 0.16515-0.1262 0.34279-0.2762 0.51563-0.416 6e-3 0 0.0118-0.011 0.0176-0.016 0.35254-0.2854 0.71662-0.5939 1.0977-0.9317 8e-3 -0.01 0.0154-0.012 0.0234-0.02 0.1498-0.1331 0.29942-0.2656 0.45312-0.4063 0.51879-0.4741 1.0546-0.9796 1.6113-1.5312 8e-3 -0.01 0.017-0.019 0.0254-0.027 0.62645-0.6214 1.2711-1.2838 1.9316-1.9864 2e-3 0 5e-3 -0.01 8e-3 -0.01 5.7003-6.0642 12.397-14.818 15.449-20.689 7.2565-13.961 9.382-22.542 10.088-40.703 0.3516-9.0499 0.26143-18.472-0.20117-20.938l-0.83984-4.4824h-86.206l0.3457 18.297 0.34766 18.297 23.338 0.1464c12.836 0.08 23.607 0.4245 23.936 0.7657 1.4086 1.4614-4.6406 13.95-9.3457 19.295-2.1226 2.4114-4.6462 4.5804-7.457 6.4844-0.72746 0.4927-1.4758 0.9656-2.2402 1.4218-0.0142 0.01-0.0268 0.019-0.041 0.027-7e-3 0-0.013 0.01-0.0195 0.012-5e-3 0-0.0103 0.01-0.0156 0.01-0.47248 0.2808-0.96386 0.54-1.4492 0.8066-0.27813 0.1528-0.54795 0.3149-0.83008 0.4629-0.0603 0.032-0.12117 0.062-0.18164 0.094-1.5722 0.8167-3.2028 1.5609-4.8809 2.2265-5e-3 0-9e-3 0-0.0137 0.01h-0.01c-9e-3 0-0.0183 0.01-0.0273 0.01-0.0247 0.01-0.0495 0.02-0.0742 0.029-0.84691 0.3336-1.706 0.6498-2.5742 0.9434-8e-3 0-0.0156 0.01-0.0234 0.01-0.0156 0.01-0.0313 0.01-0.0469 0.016-0.0207 0.01-0.0418 0.013-0.0625 0.02-0.82431 0.2765-1.656 0.5338-2.4961 0.7734-0.0342 0.01-0.0674 0.022-0.10157 0.031-7e-3 0-0.013 0-0.0195 0.01-8e-3 0-0.0157 0-0.0234 0.01-0.56031 0.1582-1.1292 0.294-1.6953 0.4355-0.29079 0.073-0.57895 0.1544-0.87109 0.2227-0.10679 0.025-0.21335 0.05-0.32031 0.074-3e-3 7e-4 -7e-3 0-0.01 0-0.8639 0.1964-1.7324 0.3782-2.6055 0.5351-4e-3 7e-4 -8e-3 0-0.0117 0-3e-3 4e-4 -5e-3 0-8e-3 0-0.0214 0-0.043 0.01-0.0644 0.01-0.80257 0.143-1.6083 0.2641-2.416 0.373-0.0163 0-0.0325 0.01-0.0488 0.01-0.015 0-0.0299 0-0.0449 0.01-0.11385 0.015-0.22787 0.031-0.3418 0.045-0.0299 0-0.0599 0.01-0.0898 0.012-0.82415 0.1034-1.6502 0.1889-2.4766 0.2559-0.14644 0.012-0.293 0.021-0.43945 0.031-6.5e-4 0-1e-3 -1e-4 -2e-3 0-7e-3 4e-4 -0.013 0-0.0195 0-7e-3 5e-4 -0.0143 0-0.0215 0-0.7744 0.056-1.5486 0.098-2.3223 0.1211-0.015 4e-4 -0.03 0-0.0449 0-0.0697 0-0.13936 0.01-0.20899 0.01-0.84598 0.022-1.6911 0.018-2.5332 0-0.15243 0-0.30478-0.01-0.45703-0.012-8e-3 -3e-4 -0.0169 3e-4 -0.0254 0-8e-3 -2e-4 -0.0156 0-0.0234 0-0.43413-0.014-0.8645-0.046-1.2969-0.07-0.37831-0.021-0.75809-0.031-1.1348-0.061-0.13976-0.011-0.27845-0.027-0.41797-0.039-0.71664-0.063-1.4297-0.1426-2.1387-0.2363-0.1697-0.022-0.34057-0.042-0.50977-0.066-0.79399-0.1137-1.5819-0.2489-2.3633-0.4024-0.15199-0.03-0.30361-0.06-0.45507-0.092-9e-3 0-0.0169 0-0.0254-0.01-0.80618-0.1675-1.6072-0.3494-2.3965-0.5606-0.91741-0.2454-1.8232-0.5098-2.7148-0.7929h-2e-3c-5.3525-1.6997-10.234-4.0715-14.582-7.0039h-2e-3c-1.449-0.9774-2.838-2.0169-4.166-3.1153h-2e-3c-0.31055-0.2568-0.60638-0.5278-0.91016-0.7909-9e-3 -0.01-0.0179-0.017-0.0273-0.025-2.9334-2.5454-5.5613-5.3747-7.832-8.4629-1.0052-1.3669-1.9428-2.7816-2.8106-4.2421-2.1693-3.6512-3.9018-7.5837-5.1602-11.732-0.0997-0.3287-0.18165-0.6646-0.27539-0.9961-0.46631-1.6487-0.85712-3.3303-1.1738-5.041-0.0165-0.089-0.0328-0.1785-0.0488-0.2675-0.17608-0.9772-0.32506-1.9637-0.45117-2.959-0.0168-0.1331-0.0369-0.2671-0.0527-0.4004-5.4e-4 0-1e-3 -0.01-2e-3 -0.014-4e-3 -0.033-6e-3 -0.067-0.01-0.1-0.0514-0.437-0.097-0.8762-0.13867-1.3164-0.0272-0.2894-0.0513-0.5804-0.0742-0.8711-8.2e-4 -0.01-1e-3 -0.021-2e-3 -0.031-0.0507-0.6411-0.0911-1.286-0.12109-1.9336-3e-5 -6e-4 3e-5 0 0 0-0.02-0.44-0.0384-0.8795-0.0488-1.3223-8e-3 -0.3486-0.0132-0.6985-0.0156-1.0488-3e-5 -0.01 4e-5 -0.01 0-0.016-1e-3 -0.2484 4e-3 -0.4988 6e-3 -0.7481 2e-3 -0.2949 2e-3 -0.5888 8e-3 -0.8847 7e-3 -0.3252 0.0137-0.6502 0.0254-0.9766 0.0241-0.6586 0.0581-1.3208 0.10351-1.9844 0.0194-0.286 0.0411-0.5724 0.0645-0.8594 0.0276-0.3361 0.0646-0.6745 0.0976-1.0117 0.0283-0.2885 0.0536-0.5759 0.0859-0.8653 8e-3 -0.075 0.0128-0.1494 0.0215-0.2246 0.0122-0.1062 0.0205-0.212 0.0332-0.3183 5e-3 -0.04 0.0107-0.081 0.0156-0.1211 0.0453-0.371 0.10624-0.7449 0.1582-1.1172 0.0262-0.1875 0.0522-0.3748 0.0801-0.5625 0.0329-0.2217 0.0604-0.4419 0.0957-0.6641 0.0361-0.2277 0.0727-0.4554 0.11132-0.6836 0.14314-0.8449 0.29697-1.6906 0.47461-2.541 0.17049-0.8161 0.3653-1.6256 0.58203-2.4278 0.16155-0.5978 0.34875-1.1877 0.53516-1.7773 1.9e-4 -6e-4 -1.9e-4 0 0 0 0.22925-0.7249 0.47848-1.4425 0.74414-2.1543 9e-3 -0.024 0.0164-0.048 0.0254-0.072h2e-3c2.1e-4 -6e-4 -2.2e-4 0 0 0 2e-3 -0.01 6e-3 -0.012 8e-3 -0.018 0.25838-0.6875 0.535-1.3686 0.82617-2.0429 0.025-0.058 0.049-0.1161 0.0742-0.1739 0.29176-0.6682 0.60101-1.328 0.92383-1.9824 3e-3 -0.01 5e-3 -0.012 8e-3 -0.018 3e-3 -0.01 5e-3 -0.012 8e-3 -0.018 0.0142-0.029 0.0287-0.057 0.043-0.086 4e-4 -8e-4 2e-3 0 2e-3 0h2e-3c2e-3 0 2e-3 -0.01 4e-3 -0.01 0.0106-0.021 0.0206-0.043 0.0312-0.064 0.0636-0.1273 0.13646-0.2501 0.20117-0.3769 0.2538-0.4973 0.51008-0.9937 0.78125-1.4824 0.0398-0.072 0.079-0.1435 0.11914-0.2149 0.338-0.6019 0.68922-1.1969 1.0527-1.7851 5e-3 -0.01 9e-3 -0.017 0.0137-0.025 0.038-0.062 0.0769-0.1223 0.11524-0.1836 4e-3 -0.01 9e-3 -0.013 0.0137-0.02 2e-3 0 2e-3 -0.01 4e-3 -0.01 8e-3 -0.012 0.0157-0.025 0.0234-0.037 3e-3 0 5e-3 -0.01 8e-3 -0.014 4.9e-4 -8e-4 1e-3 0 2e-3 0s3e-3 0 4e-3 -0.01h2e-3c0.12536-0.1997 0.26044-0.3936 0.38867-0.5918 0.24322-0.3756 0.48297-0.7535 0.73633-1.123 0.0601-0.088 0.12102-0.1745 0.18164-0.2617 0.40288-0.5799 0.81709-1.1527 1.2441-1.7168 0.0365-0.048 0.0727-0.097 0.10937-0.1446 3e-3 0 7e-3 -0.01 0.01-0.012 3e-3 0 7e-3 -0.01 0.01-0.012 1e-3 0 2e-3 0 4e-3 -0.01 0.32427-0.4247 0.66057-0.8406 0.99805-1.2559 0.1225-0.15075 0.23908-0.30559 0.36328-0.45508 0.0104-0.0125 0.0209-0.0247 0.0312-0.0371l4e-3 -4e-3c2e-3 -2e-3 4e-3 -5e-3 6e-3 -8e-3l6e-3 -6e-3c0.0121-0.0145 0.025-0.0285 0.0371-0.043 0.47928-0.57407 0.96903-1.1404 1.4727-1.6953 0.0105-0.0116 0.0207-0.0235 0.0312-0.0352l6e-3 -6e-3c0.0167-0.0184 0.034-0.0363 0.0508-0.0547 6e-3 -7e-3 0.0133-0.0127 0.0195-0.0195 0.50974-0.55839 1.0293-1.1085 1.5625-1.6465 0.56048-0.56552 1.1337-1.12 1.7188-1.6621 2.8184-2.6116 5.917-4.9399 9.209-6.9453 0.042-0.0256 0.083-0.0527 0.125-0.0781 0.0873-0.0528 0.17222-0.10974 0.25977-0.16211 0.0123-7e-3 0.0249-0.0142 0.0371-0.0215 0.48974-0.29263 0.98836-0.56971 1.4863-0.84766 0.22176-0.1237 0.44074-0.2523 0.66406-0.37304 0.45234-0.24473 0.9107-0.47659 1.3691-0.70899 5e-3 -3e-3 0.0104-5e-3 0.0156-8e-3 0.0346-0.0175 0.0689-0.0353 0.10351-0.0527 0.23256-0.11714 0.46323-0.23765 0.69727-0.35157 0.47077-0.22928 0.94734-0.44604 1.4238-0.6621 0.26807-0.12148 0.5349-0.24606 0.80468-0.36329 0.4343-0.18884 0.87206-0.36725 1.3106-0.54492 6e-3 -2e-3 0.0116-5e-3 0.0176-8e-3 0.32743-0.13246 0.65476-0.26644 0.98437-0.39258 0.0131-5e-3 0.026-0.0106 0.0391-0.0156 0.011-4e-3 0.0222-8e-3 0.0332-0.0117 0.33812-0.12893 0.67925-0.24891 1.0195-0.3711 0.0736-0.0264 0.14697-0.0539 0.2207-0.0801 0.32082-0.11359 0.64227-0.22647 0.96485-0.33399 0.41859-0.13961 0.83841-0.27309 1.2598-0.40234 0.0299-9e-3 0.0599-0.0182 0.0899-0.0274 0.25984-0.0792 0.52043-0.15528 0.78125-0.23047 0.0457-0.0132 0.091-0.028 0.13672-0.041 0.0299-9e-3 0.0599-0.0169 0.0898-0.0254 7e-3 -2e-3 0.013-4e-3 0.0195-6e-3 0.38828-0.10999 0.77774-0.21537 1.168-0.31641 0.0241-6e-3 0.0481-0.0133 0.0723-0.0195 0.2909-0.0748 0.58313-0.14309 0.875-0.21289 0.10695-0.0256 0.21325-0.0532 0.32032-0.0781 4e-3 -9e-4 8e-3 -1e-3 0.0117-2e-3 0.38452-0.0894 0.77023-0.17534 1.1562-0.25586 0.39251-0.0818 0.78581-0.15794 1.1797-0.23047 5e-3 -9.4e-4 0.0105-1e-3 0.0156-2e-3 0.39427-0.0726 0.78815-0.1439 1.1836-0.20703 0.0163-3e-3 0.0326-5e-3 0.0488-8e-3 0.18196-0.0288 0.3647-0.0513 0.54688-0.0781 0.0592-9e-3 0.1185-0.0169 0.17773-0.0254 0.14187-0.0204 0.28379-0.0414 0.42578-0.0605 0.41196-0.0556 0.82351-0.11109 1.2363-0.15625 0.42719-0.0467 0.85532-0.0818 1.2832-0.11719 0.3542-0.0293 0.70798-0.0625 1.0625-0.084 8e-3 -5.1e-4 0.0169-1e-3 0.0254-2e-3 0.0234-1e-3 0.0469-5.8e-4 0.0703-2e-3 0.0156-9.2e-4 0.0313-1e-3 0.0469-2e-3 0.41075-0.0236 0.82145-0.0378 1.2324-0.0508 6e-3 -1.8e-4 0.0117 1.9e-4 0.0176 0 0.0944-3e-3 0.18881-5e-3 0.2832-8e-3 0.26495-7e-3 0.52997-0.0193 0.79492-0.0215 0.44226-4e-3 0.88413 9e-3 1.3262 0.0176 0.0514 1e-3 0.10287 7.3e-4 0.15429 2e-3 0.30191 7e-3 0.60455 8e-3 0.90625 0.0215 5e-3 2e-4 9e-3 -2e-4 0.0137 0 0.3362 0.0148 0.67198 0.0461 1.0078 0.0684 0.0501 3e-3 0.10029 6e-3 0.15039 0.01 0.0521 4e-3 0.10418 8e-3 0.15625 0.0117 0.0469 3e-3 0.0938 6e-3 0.14062 0.01 0.32954 0.0252 0.65926 0.0417 0.98829 0.0742 2e-3 1.9e-4 4e-3 -1.9e-4 6e-3 0 0.46915 0.0464 0.93646 0.11236 1.4043 0.17383 0.0306 4e-3 0.0612 8e-3 0.0918 0.0117 0.0118 2e-3 0.0234 4e-3 0.0352 6e-3 0.0208 3e-3 0.0417 5e-3 0.0625 8e-3 0.12885 0.0175 0.258 0.0302 0.38672 0.0488 0.14249 0.0206 0.2854 0.0346 0.42774 0.0566 0.79435 0.12318 1.5863 0.26556 2.375 0.43359 0.47003 0.10014 0.95031 0.21338 1.4394 0.33789 0.48915 0.12452 0.98614 0.26128 1.4902 0.4082 6.2e-4 1.8e-4 1e-3 -1.7e-4 2e-3 0 2.0163 0.58766 4.134 1.3458 6.2226 2.2129 2.0887 0.86712 4.1467 1.8431 6.041 2.8633 2.3678 1.2751 4.4792 2.6201 6.0742 3.9121h2e-3c0.31856 0.25808 0.61733 0.51473 0.89258 0.76757l2.8496 2.6172 13.088-13.043c3.5991-3.5868 6.87-7.002 9.2422-9.6152 0.59267-0.65292 1.1302-1.2559 1.6016-1.7988v-2e-3c1.178-1.3568 1.9506-2.3384 2.1758-2.793v-2e-3c0.0449-0.0908 0.0684-0.15977 0.0684-0.20704 0-0.13959-0.0537-0.30792-0.15625-0.50195-0.30745-0.58188-1.0568-1.3963-2.1289-2.3574h-2e-3c-1.43-1.2818-3.4345-2.8268-5.7344-4.4394h-2e-3c-1.1498-0.80622-2.3725-1.63-3.6348-2.4453h-2e-3c-2.5251-1.6309-5.2046-3.2325-7.7598-4.6055h-2e-3c-1.2778-0.68655-2.5228-1.3168-3.7031-1.8652-0.77776-0.36137-1.5653-0.70817-2.3574-1.0449-0.18059-0.0768-0.36362-0.14911-0.54492-0.22461-0.59765-0.24885-1.1976-0.49158-1.8027-0.72656-8e-3 -3e-3 -0.0169-6e-3 -0.0254-0.01-0.01-4e-3 -0.0195-8e-3 -0.0293-0.0117-1e-3 -5.2e-4 -3e-3 -1e-3 -4e-3 -2e-3 -3e-3 -1e-3 -6e-3 -3e-3 -0.01-4e-3 -0.23858-0.0924-0.47905-0.18124-0.71875-0.27148-1e-3 -4.3e-4 -3e-3 4.3e-4 -4e-3 0-3e-3 -1e-3 -7e-3 -3e-3 -0.01-4e-3 -0.0123-5e-3 -0.0248-9e-3 -0.0371-0.0137-0.50588-0.19008-1.0128-0.37809-1.5234-0.55859-0.35424-0.12522-0.70996-0.24657-1.0664-0.36719-0.4475-0.15143-0.89684-0.29917-1.3477-0.44336-0.33412-0.10686-0.66803-0.21352-1.0039-0.31641-1e-3 -3.6e-4 -3e-3 3.7e-4 -4e-3 0-0.0104-3e-3 -0.0208-7e-3 -0.0312-0.01-8e-3 -3e-3 -0.0169-5e-3 -0.0254-8e-3 -0.50368-0.15389-1.0102-0.30035-1.5176-0.44532-0.0287-8e-3 -0.0572-0.0172-0.0859-0.0254-0.0268-8e-3 -0.0533-0.0158-0.0801-0.0234-7e-3 -2e-3 -0.013-4e-3 -0.0195-6e-3 -0.23375-0.0662-0.46666-0.1349-0.70117-0.19922-6e-4 -1.7e-4 -1e-3 1.6e-4 -2e-3 0-4e-3 -1e-3 -8e-3 -3e-3 -0.0117-4e-3 -0.65137-0.17858-1.306-0.3477-1.9629-0.51172-0.15847-0.0396-0.31584-0.0824-0.47461-0.12109-0.0169-4e-3 -0.0339-8e-3 -0.0508-0.0117-9e-3 -2e-3 -0.0181-6e-3 -0.0273-8e-3 -0.84652-0.20566-1.6963-0.4004-2.5508-0.58203-0.86251-0.18334-1.73-0.35281-2.5996-0.51172-0.18056-0.033-0.36212-0.0618-0.54296-0.0937-1e-3 -2.3e-4 -3e-3 2.2e-4 -4e-3 0l-0.0312-6e-3c-2e-3 -3.4e-4 -4e-3 3.3e-4 -6e-3 0-5e-3 -8e-4 -9e-3 -1e-3 -0.0137-2e-3 -0.0326-6e-3 -0.0651-0.0119-0.0977-0.0176-0.60567-0.10595-1.2117-0.20856-1.8203-0.30274-6e-3 -9e-4 -0.0118-1e-3 -0.0176-2e-3 -1e-3 -2e-4 -3e-3 2e-4 -4e-3 0l-2e-3 -2e-3c-4e-3 -6.1e-4 -8e-3 -1e-3 -0.0117-2e-3 -0.30466-0.047-0.61068-0.0887-0.91601-0.13281-0.55584-0.0802-1.1121-0.15803-1.6699-0.22852-0.32331-0.0408-0.6468-0.0796-0.97071-0.11718-0.55079-0.0639-1.102-0.12135-1.6543-0.17578-0.0182-2e-3 -0.0365-4e-3 -0.0547-6e-3 -7e-3 -6.4e-4 -0.013-1e-3 -0.0195-2e-3 -1e-3 -1.4e-4 -2e-3 -2e-3 -4e-3 -2e-3 -2e-3 -1.9e-4 -4e-3 1.9e-4 -6e-3 0-5e-3 -5.1e-4 -0.0104-1e-3 -0.0156-2e-3 -3e-3 -2.5e-4 -5e-3 2.5e-4 -8e-3 0-0.27928-0.0272-0.55826-0.0553-0.83789-0.0801-0.57602-0.0511-1.1532-0.0939-1.7305-0.13477l-0.0879-6e-3c-0.18763-0.0131-0.37475-0.0329-0.5625-0.0449-0.0878-6e-3 -0.17583-8e-3 -0.26367-0.0137-0.62393-0.0383-1.2482-0.0674-1.873-0.0937-0.26704-0.0113-0.53362-0.0261-0.80079-0.0352-0.87128-0.0296-1.7432-0.0501-2.6152-0.0566z" filter="url(#a)"/>
   <g transform="translate(241.67 815.03)">
    <path d="m282.86 308.35c-39.761-9.0898-69.24-42.943-72.664-83.446-2.863-33.87 15.172-67.727 46.009-86.373 23.964-14.49 58.197-16.156 84.154-4.0954 9.4422 4.3871 23.125 13.981 23.125 16.214 0 0.7562-5.8895 7.2443-13.088 14.418l-13.088 13.043-2.8498-2.6177c-4.4096-4.0506-14.643-8.8992-22.163-10.501-26.112-5.5631-55.718 13.727-61.178 39.862-6.4275 30.768 9.8645 58.19 39.241 66.049 17.443 4.6665 39.354-1.4152 50.429-13.997 4.7051-5.3453 10.754-17.835 9.345-19.296-0.32875-0.3412-11.1-0.6857-23.936-0.7656l-23.338-0.1453-0.34587-18.297-0.346-18.297h86.204l0.841 4.4831c0.4626 2.4657 0.5532 11.888 0.2016 20.938-0.7059 18.161-2.8328 26.741-10.089 40.702-4.49 8.6382-16.871 23.528-22.357 26.888-1.8656 1.1425-4.1156 2.7762-5 3.6305-2.1205 2.0482-14.854 7.6067-23.483 10.251-9.3476 2.8646-35.606 3.6428-45.625 1.3523z" fill="#607ef4"/>
    <path d="m303.09 126.41c-16.678-0.12521-33.405 3.9686-46.885 12.119-30.837 18.646-48.873 52.503-46.01 86.373 3.4238 40.503 32.903 74.356 72.664 83.445 10.019 2.2905 36.277 1.513 45.625-1.3516 8.6291-2.6444 21.362-8.2038 23.482-10.252 0.88437-0.8543 3.1344-2.4884 5-3.6309 1.7567-1.0758 4.223-3.3408 6.9082-6.1973l-30.545-23.527c-11.856 8.0304-28.871 11.286-42.971 7.5137-29.377-7.859-45.67-35.282-39.242-66.051 5.4596-26.135 35.065-45.424 61.178-39.861 7.5205 1.6022 17.754 6.4514 22.164 10.502l2.8496 2.6172 13.088-13.043c7.1981-7.1737 13.088-13.662 13.088-14.418 0-2.2335-13.683-11.828-23.125-16.215-11.356-5.2764-24.298-7.926-37.27-8.0234z" fill="#68a851"/>
    <path d="m303.09 126.41c-16.678-0.12521-33.405 3.9686-46.885 12.119-30.837 18.646-48.873 52.503-46.01 86.373 1.0046 11.885 4.2666 23.189 9.3594 33.471l32.32-24.633c-2.5089-8.8706-2.8877-18.693-0.75782-28.889 5.4596-26.135 35.065-45.424 61.178-39.861 7.5205 1.6022 17.754 6.4514 22.164 10.502l2.8496 2.6172 13.088-13.043c7.1981-7.1737 13.088-13.662 13.088-14.418 0-2.2335-13.683-11.828-23.125-16.215-11.356-5.2764-24.298-7.926-37.27-8.0234z" fill="#e9bf06"/>
    <path d="m303.09 126.41c-16.678-0.12521-33.405 3.9686-46.885 12.119-15.378 9.2981-27.57 22.379-35.576 37.357l31.605 24.76c7.5737-23.954 35.372-40.916 60.061-35.656 7.5205 1.6022 17.754 6.4514 22.164 10.502l2.8496 2.6172 13.088-13.043c7.1981-7.1737 13.088-13.662 13.088-14.418 0-2.2335-13.683-11.828-23.125-16.215-11.356-5.2764-24.298-7.926-37.27-8.0234z" fill="#ca4b3a"/>
   </g>
  </g>
 </g>
</svg>
